<svg width="78" height="78" viewBox="0 0 78 78" fill="none" xmlns="http://www.w3.org/2000/svg">
<rect width="78" height="78" rx="10" fill="#F1C21B"/>
<path d="M30.1818 29C27.85 29 26.4318 29.4331 25.6136 29.8006C24.5636 29.3019 23.3636 29 22 29C20.6364 29 19.4364 29.3019 18.3864 29.8006C17.5682 29.4331 16.15 29 13.8182 29C9.72727 29 7 39.5 7 42.125C7 43.2144 8.8 44.2119 11.2818 44.6187C12.1545 47.5588 16.2727 49.8031 21.3182 50V44.3825C20.5136 43.8969 19.2727 43.0175 19.2727 42.125C19.2727 40.8125 22 40.8125 22 40.8125C22 40.8125 24.7273 40.8125 24.7273 42.125C24.7273 43.0175 23.4864 43.8969 22.6818 44.3825V50C27.7273 49.8031 31.8455 47.5588 32.7182 44.6187C35.2 44.2119 37 43.2144 37 42.125C37 39.5 34.2727 29 30.1818 29ZM11.2955 41.9544C10.6136 41.7969 10.0818 41.6131 9.72727 41.4688C10.0682 37.8331 12.7273 32.15 13.8864 31.625C14.6227 31.625 15.1818 31.7038 15.6864 31.7694C12.8227 34.8012 11.6909 39.5525 11.2955 41.9544ZM17.9091 39.5C17.5474 39.5 17.2006 39.3617 16.9449 39.1156C16.6891 38.8694 16.5455 38.5356 16.5455 38.1875C16.5455 37.4788 17.1591 36.875 17.9091 36.875C18.2708 36.875 18.6176 37.0133 18.8733 37.2594C19.1291 37.5056 19.2727 37.8394 19.2727 38.1875C19.2727 38.9225 18.6591 39.5 17.9091 39.5ZM26.0909 39.5C25.7292 39.5 25.3824 39.3617 25.1267 39.1156C24.8709 38.8694 24.7273 38.5356 24.7273 38.1875C24.7273 37.4788 25.3409 36.875 26.0909 36.875C26.4526 36.875 26.7994 37.0133 27.0551 37.2594C27.3109 37.5056 27.4545 37.8394 27.4545 38.1875C27.4545 38.9225 26.8409 39.5 26.0909 39.5ZM32.7045 41.9544C32.3091 39.5525 31.1773 34.8012 28.3136 31.7694C28.8182 31.7038 29.3773 31.625 30.1136 31.625C31.2727 32.15 33.9318 37.8331 34.2727 41.4688C33.9318 41.6131 33.4 41.7969 32.7045 41.9544Z" fill="#FFF9D9"/>
<path d="M56 33.1935L53.9909 33.3271C52.6918 31.8135 49.0514 28 45.426 28C45.426 28 42.4502 32.3923 45.3656 38.2535C44.5347 39.4852 44.0211 40.1232 43.9154 41.5923L41 42.0226L41.3172 43.4768L43.9758 43.091L44.1873 44.1445L41.8157 45.5394L42.5257 46.86L44.716 45.5394C46.4532 49.16 50.8489 51 56 51C61.1511 51 65.5468 49.16 67.284 45.5394L69.4743 46.86L70.1843 45.5394L67.8127 44.1445L68.0242 43.091L70.6828 43.4768L71 42.0226L68.0846 41.5923C67.9789 40.1232 67.4653 39.4852 66.6344 38.2535C69.5499 32.3923 66.574 28 66.574 28C62.9486 28 59.3082 31.8135 58.0091 33.3271L56 33.1935ZM51.4683 37.6452C51.8689 37.6452 52.2531 37.8015 52.5364 38.0798C52.8197 38.3581 52.9789 38.7355 52.9789 39.129C52.9789 39.5226 52.8197 39.9 52.5364 40.1783C52.2531 40.4566 51.8689 40.6129 51.4683 40.6129C51.0676 40.6129 50.6834 40.4566 50.4001 40.1783C50.1169 39.9 49.9577 39.5226 49.9577 39.129C49.9577 38.7355 50.1169 38.3581 50.4001 38.0798C50.6834 37.8015 51.0676 37.6452 51.4683 37.6452ZM60.5317 37.6452C60.9324 37.6452 61.3166 37.8015 61.5999 38.0798C61.8831 38.3581 62.0423 38.7355 62.0423 39.129C62.0423 39.5226 61.8831 39.9 61.5999 40.1783C61.3166 40.4566 60.9324 40.6129 60.5317 40.6129C60.1311 40.6129 59.7469 40.4566 59.4636 40.1783C59.1803 39.9 59.0211 39.5226 59.0211 39.129C59.0211 38.7355 59.1803 38.3581 59.4636 38.0798C59.7469 37.8015 60.1311 37.6452 60.5317 37.6452ZM54.4894 42.0968H57.5106L56.4532 44.1594C56.7553 45.109 57.6012 45.8065 58.6435 45.8065C59.2444 45.8065 59.8208 45.5719 60.2457 45.1545C60.6706 44.7371 60.9094 44.171 60.9094 43.5806H61.6647C61.6647 44.3677 61.3464 45.1226 60.7798 45.6792C60.2132 46.2357 59.4448 46.5484 58.6435 46.5484C57.5106 46.5484 56.5287 45.94 56 45.0645C55.4713 45.94 54.4894 46.5484 53.3565 46.5484C52.5552 46.5484 51.7868 46.2357 51.2202 45.6792C50.6536 45.1226 50.3353 44.3677 50.3353 43.5806H51.0906C51.0906 44.171 51.3294 44.7371 51.7543 45.1545C52.1792 45.5719 52.7556 45.8065 53.3565 45.8065C54.3988 45.8065 55.2447 45.109 55.5468 44.1594L54.4894 42.0968Z" fill="#FFF9D9"/>
</svg>
