<svg width="18" height="32" viewBox="0 0 18 32" fill="none" xmlns="http://www.w3.org/2000/svg">
<path d="M12.1446 8.08808C12.1857 8.03998 12.3776 7.88283 13.1314 7.88283L15.6029 7.88188C16.4069 7.88188 17.0608 7.20278 17.0608 6.36796V1.8829C17.0608 1.04951 16.4079 0.370413 15.6052 0.368984L11.9341 0.362793C9.66831 0.362793 7.74217 1.1388 6.3639 2.60723C4.99182 4.069 4.26645 6.10961 4.26645 8.50811V10.9271H1.45808C0.654048 10.9271 0 11.6062 0 12.441V17.2713C0 18.1061 0.654048 18.7852 1.45808 18.7852H4.26645V30.0586C4.26645 30.8934 4.9205 31.5725 5.72453 31.5725H10.5382C11.3422 31.5725 11.9962 30.8934 11.9962 30.0586V18.7855H15.4291C16.2331 18.7855 16.8869 18.1061 16.8869 17.2718L16.8888 12.4412C16.8888 11.8929 16.6014 11.3854 16.1386 11.1171C15.9242 10.9928 15.6747 10.9271 15.4174 10.9271H11.9962V9.016C11.9962 8.3931 12.077 8.16761 12.1446 8.08808Z" fill="white"/>
</svg>
