<svg width="29" height="31" viewBox="0 0 29 31" fill="none" xmlns="http://www.w3.org/2000/svg">
<path d="M24.1667 0.402832H4.83333C3.55145 0.402832 2.32208 0.928937 1.41565 1.86541C0.509225 2.80188 0 4.07201 0 5.39638L0 25.3706C0 26.6949 0.509225 27.9651 1.41565 28.9015C2.32208 29.838 3.55145 30.3641 4.83333 30.3641H24.1667C25.4485 30.3641 26.6779 29.838 27.5843 28.9015C28.4908 27.9651 29 26.6949 29 25.3706V5.39638C29 4.07201 28.4908 2.80188 27.5843 1.86541C26.6779 0.928937 25.4485 0.402832 24.1667 0.402832V0.402832ZM26.5833 25.3706C26.5833 26.0328 26.3287 26.6678 25.8755 27.1361C25.4223 27.6043 24.8076 27.8674 24.1667 27.8674H4.83333C4.19239 27.8674 3.5777 27.6043 3.12449 27.1361C2.67128 26.6678 2.41667 26.0328 2.41667 25.3706V5.39638C2.41667 4.7342 2.67128 4.09913 3.12449 3.63089C3.5777 3.16266 4.19239 2.89961 4.83333 2.89961H24.1667C24.8076 2.89961 25.4223 3.16266 25.8755 3.63089C26.3287 4.09913 26.5833 4.7342 26.5833 5.39638V25.3706Z" fill="white"/>
<path d="M14.5 7.89355C13.0661 7.89355 11.6644 8.33285 10.4721 9.1559C9.27986 9.97895 8.35061 11.1488 7.80188 12.5175C7.25314 13.8861 7.10957 15.3922 7.38931 16.8452C7.66905 18.2981 8.35955 19.6328 9.37348 20.6803C10.3874 21.7279 11.6792 22.4413 13.0856 22.7303C14.492 23.0193 15.9497 22.871 17.2745 22.304C18.5992 21.7371 19.7315 20.7771 20.5282 19.5453C21.3248 18.3135 21.75 16.8653 21.75 15.3839C21.75 13.3973 20.9862 11.4921 19.6265 10.0874C18.2669 8.68271 16.4228 7.89355 14.5 7.89355ZM14.5 20.3774C13.5441 20.3774 12.6096 20.0846 11.8147 19.5359C11.0199 18.9872 10.4004 18.2073 10.0346 17.2948C9.66876 16.3824 9.57305 15.3783 9.75954 14.4097C9.94604 13.441 10.4064 12.5513 11.0823 11.8529C11.7583 11.1545 12.6195 10.679 13.5571 10.4863C14.4946 10.2936 15.4665 10.3925 16.3496 10.7704C17.2328 11.1484 17.9877 11.7884 18.5188 12.6096C19.0499 13.4308 19.3333 14.3962 19.3333 15.3839C19.3333 16.7082 18.8241 17.9784 17.9177 18.9148C17.0113 19.8513 15.7819 20.3774 14.5 20.3774Z" fill="white"/>
<path d="M22.3542 9.14164C23.3553 9.14164 24.1667 8.30326 24.1667 7.26906C24.1667 6.23487 23.3553 5.39648 22.3542 5.39648C21.3532 5.39648 20.5417 6.23487 20.5417 7.26906C20.5417 8.30326 21.3532 9.14164 22.3542 9.14164Z" fill="white"/>
</svg>
