<svg width="1022" height="217" viewBox="0 0 1022 217" fill="none" xmlns="http://www.w3.org/2000/svg">
<path d="M78.2132 74.6775C68.8044 80.1606 71.0024 90.5663 66.3199 103.834C59.6915 123.174 67.189 132.961 76.03 131.044C84.871 129.126 87.005 116.3 95.8259 112.203C104.242 107.577 115.306 113.407 121.852 106.879C128.601 100.615 125.684 88.1942 107.111 82.2532C94.7141 78.4522 87.9816 70.2021 78.2132 74.6775Z" fill="#FFAA00"/>
<path d="M49.4012 79.0826C58.4832 84.7871 63.762 94.2405 61.2299 100.161C58.4614 106.286 48.8906 106.607 39.8086 100.902C30.7266 95.198 25.4478 85.7445 27.98 79.8237C30.7485 73.6989 40.3192 73.3781 49.4012 79.0826Z" fill="#FFAA00"/>
<path d="M97.1947 54.2379C95.5458 64.9591 99.4887 74.3972 105.768 75.6204C112.047 76.8435 118.652 69.3729 120.3 58.6516C121.949 47.9303 118.006 38.4922 111.727 37.269C105.201 36.2594 98.5962 43.73 97.1947 54.2379Z" fill="#FFAA00"/>
<path d="M62.4794 48.8464C69.2976 58.2791 70.1974 69.5702 64.8264 73.7409C59.4555 77.9116 49.5329 73.4786 42.7147 64.0459C35.8964 54.6132 34.9967 43.322 40.3676 39.1513C45.7385 34.9805 55.6611 39.4137 62.4794 48.8464Z" fill="#FFAA00"/>
<path d="M67.4401 45.8422C70.3982 56.4403 77.8971 63.1198 84.0032 61.2444C90.3482 59.1626 93.0404 49.2034 90.2779 38.8607C87.3198 28.2626 79.8209 21.5831 73.7148 23.4586C67.4132 25.0787 64.482 35.2441 67.4401 45.8422Z" fill="#FFAA00"/>
<path d="M26.5733 187.901C21.6638 186.226 18.8487 190.407 12.8325 192.991C4.12646 196.829 3.23947 202.754 6.75613 205.376C10.2728 207.998 15.3129 204.622 19.562 206.53C23.859 208.118 25.4701 214.068 29.8057 214.353C34.1174 214.799 37.3826 209.701 33.3747 200.96C30.6438 195.179 31.2578 190.034 26.5733 187.901Z" fill="#F1C21B"/>
<path d="M15.7381 178.758C16.7488 183.94 15.2555 188.942 12.4272 189.932C9.45315 190.902 6.2412 187.495 5.23043 182.313C4.21966 177.131 5.71302 172.129 8.54129 171.138C11.5154 170.168 14.7273 173.576 15.7381 178.758Z" fill="#F1C21B"/>
<path d="M39.6573 188.238C35.4879 191.109 33.5667 195.616 35.1879 198.317C36.8091 201.017 41.4833 201.018 45.6526 198.147C49.822 195.276 51.7432 190.769 50.122 188.068C48.3482 185.346 43.6741 185.345 39.6573 188.238Z" fill="#F1C21B"/>
<path d="M30.2292 173.752C29.2421 179.313 25.7059 183.304 22.5505 182.685C19.3951 182.067 17.6807 176.989 18.6679 171.429C19.655 165.869 23.1913 161.877 26.3467 162.496C29.5021 163.114 31.2164 168.192 30.2292 173.752Z" fill="#F1C21B"/>
<path d="M32.8561 174.599C30.2223 179.12 30.3892 184.037 33.0048 185.67C35.7678 187.323 40.0171 185.081 42.6278 180.714C45.2616 176.193 45.0947 171.276 42.4791 169.643C39.8866 167.856 35.49 170.077 32.8561 174.599Z" fill="#F1C21B"/>
<path d="M980.959 128.252C976.535 123.106 971.041 125.808 962.95 124.652C951.174 123.022 946.919 128.996 949.415 134.279C951.752 139.469 959.299 139.246 962.845 144.087C966.715 148.695 965.166 156.261 969.855 159.655C974.385 162.955 980.77 159.718 981.261 147.291C981.535 138.975 985.219 133.725 980.959 128.252Z" fill="#F1C21B"/>
<path d="M974.356 112.288C973.066 118.523 968.757 122.558 964.918 121.571C961.079 120.584 958.996 114.484 960.444 108.343C961.733 102.107 965.883 97.9789 969.881 99.0593C973.88 100.14 975.645 106.052 974.356 112.288Z" fill="#F1C21B"/>
<path d="M995.032 138.014C988.929 138.239 984.384 141.923 984.728 146.152C985.071 150.38 990.326 153.471 996.352 152.99C1002.45 152.765 1007 149.081 1006.66 144.852C1006.31 140.624 1001.06 137.532 995.032 138.014Z" fill="#F1C21B"/>
<path d="M992.931 115.585C988.929 120.648 983.045 122.485 979.712 119.677C976.38 116.869 977.032 110.259 981.034 105.196C985.036 100.133 990.92 98.2958 994.253 101.104C997.585 103.912 996.933 110.522 992.931 115.585Z" fill="#F1C21B"/>
<path d="M995.06 118.321C989.478 121.607 986.832 127.256 989.027 131.09C991.222 134.925 997.395 135.378 1002.98 132.092C1008.56 128.807 1011.21 123.157 1009.01 119.323C1006.82 115.489 1000.64 115.036 995.06 118.321Z" fill="#F1C21B"/>
</svg>
