<svg width="131" height="129" viewBox="0 0 131 129" fill="none" xmlns="http://www.w3.org/2000/svg">
<path d="M74.5757 47.7142C85.2244 46.6888 81.8788 30.4573 74.8461 25.7449C67.9273 11.7823 51.8831 19.1018 57.6203 33.0498C56.3249 42.2855 67.4007 54.5646 74.5757 47.7142ZM73.4226 45.3871C67.4291 52.252 59.3145 39.4312 59.9835 33.0789L59.3999 32.4935C54.2321 20.2871 66.703 15.2366 71.8707 27.443L72.4544 28.0284C78.3198 31.5699 82.8754 45.5034 72.8246 45.9579L73.4226 45.3871Z" fill="#F1C21B"/>
<path d="M47.8358 59.5352C58.4844 58.5098 55.1389 42.2783 48.1062 37.5659C41.1873 23.6033 25.1432 30.9228 31.4641 45.4562C30.1686 54.6919 41.2444 66.971 48.4195 60.1206L47.8358 59.5352ZM46.6826 57.2081C40.6892 64.073 32.5745 51.2522 33.2436 44.8999L32.6599 44.3145C27.4921 32.1081 39.963 27.0576 45.1308 39.264L45.7145 39.8494C51.5798 43.3909 56.1355 57.3244 46.0847 57.779L46.6826 57.2081Z" fill="#F1C21B"/>
<path d="M104.583 57.906C113.467 56.2806 114.791 44.732 106.562 41.1612C101.365 31.2671 85.9187 38.0159 89.9193 49.0518C87.4564 57.1169 97.422 63.6002 103.985 58.4768L104.583 57.906ZM103.43 55.5788L102.832 56.1497C97.4647 60.1313 89.8481 54.8334 92.2825 49.0809L92.2968 47.9246C88.8515 39.7868 101.323 34.7361 104.768 42.8739L105.352 43.4593C111.231 45.8447 111.118 55.0952 104.014 56.1642L103.43 55.5788Z" fill="#F1C21B"/>
<path d="M36.8363 88.3152C45.72 86.6898 47.0439 75.1412 38.8151 71.5705C33.6187 61.6764 18.172 68.4252 22.1726 79.461C19.7096 87.5261 29.6753 94.0095 36.2384 88.8861L36.8363 88.3152ZM35.6831 85.988L35.0852 86.5589C29.718 90.5405 22.1014 85.2426 24.5358 79.4901L24.5501 78.3338C21.1048 70.196 33.576 65.1453 37.0213 73.2831L37.605 73.8685C43.4848 76.2539 43.3709 85.5044 36.2668 86.5734L35.6831 85.988Z" fill="#F1C21B"/>
<path d="M93.2557 65.2908C81.14 41.4332 38.956 59.9964 49.2921 84.4104C40.6789 112.061 65.4938 112.366 84.5001 104.504C102.923 96.0574 120.292 77.1887 93.2557 65.2908ZM91.4618 67.0035L92.0455 67.5889C116.732 78.3014 101.157 95.4574 83.9306 102.763C66.7039 110.068 43.6401 111.519 51.6412 85.5958L51.6554 84.4395C41.8888 61.7673 80.4993 45.4731 91.4618 67.0035Z" fill="#F1C21B"/>
</svg>
