<svg width="94" height="91" viewBox="0 0 94 91" fill="none" xmlns="http://www.w3.org/2000/svg">
<path d="M64.9669 39.6572C73.3646 46.1989 82.602 32.2979 80.9225 24.1209C85.9611 9.40218 69.1658 3.67825 63.2874 17.5792C55.7295 23.3032 54.8897 39.6572 64.9669 39.6572ZM65.8067 37.2041C56.5693 38.0218 59.9283 23.3032 64.9669 19.2146V18.3969C70.0055 6.13136 82.602 11.0376 77.5634 23.3032V24.1209C79.243 30.6625 72.5248 43.7458 64.9669 37.2041H65.8067Z" fill="#124C5F"/>
<path d="M37.2547 29.8448C45.6523 36.3864 54.8898 22.4854 53.2102 14.3084C58.2488 -0.4103 41.4535 -6.13423 35.5751 8.58445C28.0172 14.3084 27.1775 30.6625 37.2547 30.6625V29.8448ZM38.0944 27.3917C28.857 28.2094 32.2161 13.4907 37.2547 9.40216V8.58445C42.2933 -3.68112 54.8898 1.22511 49.8512 13.4907V14.3084C51.5307 20.85 44.8126 33.9333 37.2547 27.3917H38.0944Z" fill="#124C5F"/>
<path d="M79.2429 67.4591C86.8008 72.3654 96.0382 65.006 92.6792 56.829C96.0382 46.1988 80.0827 40.4749 75.0441 51.1051C67.4862 55.1936 70.0055 66.6414 78.4031 67.4591H79.2429ZM80.0827 65.006H79.2429C72.5248 64.1883 70.8452 55.1936 76.7236 52.7405L77.5634 51.9228C80.9224 43.7457 93.5189 48.6519 90.1599 56.829V57.6467C92.6792 63.3706 85.961 69.9123 80.0827 65.8237V65.006Z" fill="#124C5F"/>
<path d="M8.70251 42.928C16.2604 47.8342 25.4979 40.4749 22.1388 32.2979C25.4979 21.6677 9.54228 15.9438 4.50367 26.5739C-3.05423 30.6625 -0.534928 42.1103 7.86274 42.928H8.70251ZM9.54228 40.4749H8.70251C1.98437 39.6572 0.30484 30.6625 6.18321 28.2093L7.02298 27.3916C10.382 19.2146 22.9785 24.1208 19.6195 32.2979V33.1156C22.1388 38.8395 15.4206 45.3811 9.54228 41.2926V40.4749Z" fill="#124C5F"/>
<path d="M65.8065 65.0061C74.2041 39.6573 30.5362 24.1209 20.459 48.652C-5.57374 62.553 12.0614 79.7248 31.376 87.0841C50.6906 93.6258 76.7234 91.9904 65.8065 65.0061ZM63.2872 65.0061V65.8238C73.3644 90.355 49.8509 91.9904 32.2158 85.4487C14.5807 78.9071 -3.05444 64.1884 21.2988 51.1051L22.1386 50.2874C31.376 27.3917 70.8451 42.1104 63.2872 65.0061Z" fill="#124C5F"/>
</svg>
